# xmcd
#
# Track frame offsets:
#	150
#	14747
#	27148
#	42685
#	58078
#	72184
#	92152
#	100280
#	116324
#	141024
#	158715
#	176711
#	200963
#	218484
#	237940
#	248223
#	267216
#
# Disc length: 3839 seconds
#
# Revision: 1
# Processed by: cddbd v1.5.2PL0 Copyright (c) Steve Scherf et al.
# Submitted via: audiograbber 1.83.01
#
DISCID=f70efd11
DTITLE=Mountaineers - Whazzup (Live)
DYEAR=2005
DGENRE=Country
TTITLE0=01 Titel 1
TTITLE1=02 Titel 2
TTITLE2=Take It Easy
TTITLE3=God Must Be A Cowboy
TTITLE4=Highway 40 Blues
TTITLE5=06 Titel 6
TTITLE6=07 Titel 7
TTITLE7=I Can't Remember Your Name
TTITLE8=Leavin' On A Yetplane
TTITLE9=Long Haired Country Boy
TTITLE10=Friends In Low Places
TTITLE11=Ghost Riders In The Sky
TTITLE12=Man Of Constant Sorrow
TTITLE13=I Am Drunk
TTITLE14=Lookin' At The World Through A Windshield
TTITLE15=Mountain Music
TTITLE16=Silver Wings
EXTD=
EXTT0=
EXTT1=
EXTT2=
EXTT3=
EXTT4=
EXTT5=
EXTT6=
EXTT7=
EXTT8=
EXTT9=
EXTT10=
EXTT11=
EXTT12=
EXTT13=
EXTT14=
EXTT15=
EXTT16=
PLAYORDER=
